<?xml version="1.0" encoding="utf-8"?>
<!-- Generator: Adobe Illustrator 19.1.0, SVG Export Plug-In . SVG Version: 6.00 Build 0)  -->
<svg version="1.1" id="Layer_1" xmlns="http://www.w3.org/2000/svg" xmlns:xlink="http://www.w3.org/1999/xlink" x="0px" y="0px"
	 viewBox="0 0 168 128.1" style="enable-background:new 0 0 168 128.1;" xml:space="preserve">
<g>
	<g>
		<path style="fill:#FFFFFF;" d="M0,89.3h4.2l4.6,7.5l4.6-7.5h4.2V107h-3.9V95.5l-5,7.5H8.7l-4.9-7.5V107H0V89.3z"/>
		<path style="fill:#FFFFFF;" d="M31,89.2h3.6l7.6,17.8h-4.1l-1.6-4H29l-1.6,4h-4L31,89.2z M35.1,99.6l-2.3-5.7l-2.3,5.7H35.1z"/>
		<path style="fill:#FFFFFF;" d="M47.9,89.3h13.3v3.5h-9.5v3.6h8.3v3.5h-8.3v3.7h9.6v3.5H47.9V89.3z"/>
		<path style="fill:#FFFFFF;" d="M71.9,92.9h-5.4v-3.6h14.6v3.6h-5.4V107h-3.9V92.9z"/>
		<path style="fill:#FFFFFF;" d="M87.2,89.3h3.9v14.1h8.8v3.5H87.2V89.3z"/>
		<path style="fill:#FFFFFF;" d="M111.9,89.2h3.6L123,107H119l-1.6-4h-7.5l-1.6,4h-4L111.9,89.2z M116,99.6l-2.3-5.7l-2.3,5.7H116z"
			/>
		<path style="fill:#FFFFFF;" d="M128.8,89.3h3.6l8.3,10.9V89.3h3.8V107h-3.3l-8.6-11.2V107h-3.8V89.3z"/>
		<path style="fill:#FFFFFF;" d="M151.7,89.3h6.9c5.5,0,9.4,3.8,9.4,8.8v0.1c0,5-3.8,8.8-9.4,8.8h-6.9V89.3z M155.6,92.8v10.6h3
			c3.2,0,5.3-2.1,5.3-5.3v-0.1c0-3.1-2.1-5.3-5.3-5.3H155.6z"/>
	</g>
	<g>
		<g>
			<path style="fill:#FFFFFF;" d="M49.3,124.4c0,0.2,0,0.3,0.1,0.4c0.1,0.1,0.2,0.1,0.2,0.1c0.1,0,0.2,0,0.2,0.1
				c0.1,0,0.1,0.1,0.1,0.1c0,0.1,0,0.1,0,0.1s-0.1,0-0.2,0s-0.2,0-0.3,0c-0.1,0-0.3,0-0.5,0c-0.2,0-0.4,0-0.5,0c-0.2,0-0.3,0-0.4,0
				c-0.1,0-0.1,0-0.2,0c0,0-0.1-0.1-0.1-0.1c0-0.1,0-0.1,0.1-0.1c0.1,0,0.2,0,0.3-0.1c0.1,0,0.2-0.1,0.3-0.1
				c0.1-0.1,0.1-0.2,0.1-0.4v-7.1c0-0.4-0.1-0.6-0.4-0.6c0,0,0,0,0,0s-0.1,0-0.1,0c-0.1,0-0.1,0-0.1-0.1c0-0.1,0.1-0.2,0.2-0.2
				c0.1,0,0.2,0,0.4-0.1c0.2-0.1,0.4-0.2,0.5-0.2s0.2-0.1,0.2-0.1c0.1,0,0.1,0.1,0.1,0.3V124.4z"/>
			<path style="fill:#FFFFFF;" d="M58.4,123.9c0,0.6,0.1,0.8,0.4,0.8c0.1,0,0.2,0,0.3-0.1c0.1-0.1,0.2-0.1,0.2-0.1
				c0.1,0,0.1,0,0.1,0.1c0,0.1,0,0.2-0.1,0.2c-0.1,0.1-0.2,0.2-0.3,0.3s-0.2,0.2-0.3,0.2c-0.1,0.1-0.2,0.1-0.3,0.1
				c-0.2,0-0.3-0.1-0.4-0.2c-0.1-0.1-0.2-0.4-0.3-0.7h-0.1c-0.3,0.3-0.6,0.5-0.9,0.7c-0.3,0.2-0.5,0.3-0.8,0.3
				c-0.3,0-0.6-0.1-0.7-0.3c-0.2-0.2-0.3-0.4-0.3-0.8c0-0.2,0.1-0.5,0.2-0.7c0.1-0.2,0.3-0.4,0.5-0.6s0.5-0.4,0.9-0.6
				c0.3-0.2,0.7-0.5,1.2-0.7v-1.2c0-0.4,0-0.7-0.1-0.9c-0.1-0.2-0.3-0.3-0.5-0.3c-0.2,0-0.4,0.1-0.7,0.2c-0.2,0.2-0.3,0.4-0.4,0.6
				c-0.1,0.3-0.2,0.5-0.3,0.7c-0.1,0.2-0.3,0.3-0.5,0.3c-0.1,0-0.1,0-0.2-0.1c0,0-0.1-0.1-0.1-0.2c0-0.2,0.1-0.3,0.2-0.6
				s0.3-0.4,0.5-0.6c0.2-0.2,0.5-0.4,0.8-0.5c0.3-0.1,0.6-0.2,1-0.2c0.3,0,0.5,0,0.7,0.1c0.2,0.1,0.3,0.2,0.4,0.3
				c0.1,0.1,0.1,0.3,0.1,0.5c0,0.2,0,0.4,0,0.6V123.9z M57.5,122.1c0,0-0.1,0-0.1,0.1l-0.4,0.2c-0.9,0.5-1.4,1.1-1.4,1.7
				c0,0.2,0.1,0.4,0.2,0.6c0.1,0.1,0.3,0.2,0.5,0.2c0.1,0,0.3,0,0.4-0.1s0.3-0.2,0.4-0.3s0.2-0.3,0.3-0.4s0.1-0.4,0.1-0.6v-1.2
				C57.6,122.1,57.6,122.1,57.5,122.1z"/>
			<path style="fill:#FFFFFF;" d="M65.3,120c0,0.1,0,0.1,0.1,0.1s0.1-0.1,0.2-0.2s0.2-0.3,0.4-0.4c0.2-0.2,0.4-0.3,0.5-0.4
				c0.2-0.1,0.4-0.1,0.6-0.1c0.5,0,0.9,0.2,1.2,0.5c0.3,0.4,0.5,0.9,0.5,1.5v3.3c0,0.2,0,0.3,0.1,0.4c0.1,0.1,0.2,0.1,0.2,0.1
				s0.2,0,0.2,0.1c0.1,0,0.1,0.1,0.1,0.1c0,0.1,0,0.1,0,0.1s-0.1,0-0.2,0c-0.1,0-0.2,0-0.3,0c-0.1,0-0.3,0-0.6,0c-0.2,0-0.3,0-0.5,0
				c-0.1,0-0.3,0-0.4,0c-0.1,0-0.1,0-0.2,0c0,0-0.1,0-0.1-0.1s0-0.1,0.1-0.1c0.1,0,0.2,0,0.2-0.1c0.1,0,0.2-0.1,0.2-0.1
				c0.1-0.1,0.1-0.2,0.1-0.4v-2.7c0-0.7-0.1-1.2-0.3-1.6s-0.5-0.5-1-0.5c-0.5,0-0.8,0.2-1,0.6c-0.2,0.4-0.3,1-0.3,1.7v2.4
				c0,0.2,0,0.3,0.1,0.4c0.1,0.1,0.2,0.1,0.2,0.1s0.2,0,0.2,0.1c0.1,0,0.1,0.1,0.1,0.1c0,0.1,0,0.1,0,0.1s-0.1,0-0.2,0
				c-0.1,0-0.2,0-0.3,0c-0.1,0-0.3,0-0.6,0c-0.2,0-0.3,0-0.5,0c-0.1,0-0.3,0-0.4,0c-0.1,0-0.1,0-0.2,0s0-0.1,0-0.1
				c0-0.1,0-0.1,0.1-0.1c0.1,0,0.2,0,0.2-0.1c0.1,0,0.2-0.1,0.2-0.1s0.1-0.2,0.1-0.4v-3.9c0-0.1,0-0.2-0.1-0.3s-0.1-0.1-0.2-0.1
				s-0.1,0-0.2,0c-0.1,0-0.1,0-0.1-0.1c0-0.1,0-0.1,0.1-0.2c0.1,0,0.2-0.1,0.3-0.2c0.2-0.2,0.4-0.3,0.5-0.4c0.1-0.1,0.2-0.2,0.2-0.2
				c0,0,0.1,0,0.1,0.1c0,0.1,0,0.1,0,0.2V120z"/>
			<path style="fill:#FFFFFF;" d="M78.9,123.9c0,0.3,0,0.5,0,0.6s0.1,0.2,0.2,0.2c0,0,0.1,0,0.1,0c0,0,0.1-0.1,0.1-0.1
				s0.1-0.1,0.1-0.1c0,0,0.1,0,0.1,0c0,0,0,0.1,0,0.2c0,0.1,0,0.2-0.1,0.2c0,0-0.1,0.1-0.2,0.1c-0.3,0.1-0.5,0.2-0.6,0.3
				c-0.1,0.1-0.2,0.1-0.3,0.1c-0.1,0-0.1-0.1-0.2-0.3l-0.1-0.6h-0.1c-0.3,0.3-0.6,0.6-0.9,0.8s-0.6,0.3-0.9,0.3
				c-0.3,0-0.6-0.1-0.8-0.2c-0.3-0.1-0.5-0.3-0.7-0.6c-0.2-0.3-0.3-0.6-0.5-1c-0.1-0.4-0.2-0.8-0.2-1.3c0-0.5,0.1-1,0.2-1.4
				s0.3-0.7,0.5-1c0.2-0.3,0.5-0.5,0.8-0.6c0.3-0.1,0.6-0.2,1-0.2c0.2,0,0.4,0,0.6,0.1c0.2,0,0.3,0.1,0.4,0.1
				c0.1,0.1,0.2,0.1,0.2,0.1s0.1,0.1,0.1,0.1c0.1,0,0.1,0,0.1-0.1v-2c0-0.4-0.1-0.6-0.4-0.6c0,0,0,0,0,0c0,0,0,0-0.1,0
				c0,0,0,0-0.1,0c0,0,0-0.1,0-0.1c0-0.1,0.1-0.1,0.2-0.2c0.1,0,0.2-0.1,0.4-0.1c0.2-0.1,0.4-0.2,0.5-0.2c0.1-0.1,0.2-0.1,0.2-0.1
				c0.1,0,0.1,0.1,0.1,0.3V123.9z M78.1,120c-0.1-0.1-0.2-0.3-0.3-0.4c-0.1-0.1-0.3-0.2-0.4-0.2c-0.2-0.1-0.3-0.1-0.5-0.1
				c-0.5,0-1,0.2-1.3,0.7s-0.5,1.2-0.5,2.1c0,0.9,0.2,1.6,0.5,2.1c0.3,0.5,0.7,0.7,1.2,0.7c0.2,0,0.4,0,0.5-0.1
				c0.2-0.1,0.3-0.2,0.5-0.3c0.1-0.1,0.2-0.3,0.3-0.5c0.1-0.2,0.1-0.4,0.1-0.6v-3C78.2,120.3,78.1,120.1,78.1,120z"/>
			<path style="fill:#FFFFFF;" d="M89,119.6C89,119.6,89,119.6,89,119.6c0.1,0,0.1,0,0.2,0c0.1,0,0.2,0,0.2,0.1c0,0,0.1,0.1,0.1,0.3
				c0,0.1,0,0.1,0,0.1c0,0-0.1,0-0.2,0h-0.1l-0.6,0c0.1,0.2,0.2,0.4,0.2,0.6c0,0.2,0.1,0.4,0.1,0.6c0,0.6-0.2,1.1-0.5,1.5
				c-0.4,0.4-0.8,0.6-1.4,0.6c-0.5,0-0.8,0.1-1,0.2c-0.2,0.1-0.3,0.2-0.3,0.3c0,0.1,0.1,0.2,0.2,0.3c0.1,0.1,0.3,0.2,0.6,0.2
				c0.1,0,0.3,0,0.4,0c0.1,0,0.3,0,0.4,0c1.5,0,2.3,0.5,2.3,1.6c0,0.3-0.1,0.6-0.2,0.9s-0.3,0.5-0.6,0.7c-0.3,0.2-0.6,0.4-0.9,0.5
				c-0.4,0.1-0.7,0.2-1.1,0.2c-0.7,0-1.3-0.1-1.7-0.4c-0.4-0.3-0.6-0.6-0.6-1.1c0-0.2,0.1-0.4,0.2-0.6s0.3-0.3,0.4-0.5
				s0.3-0.2,0.4-0.3c0.1-0.1,0.2-0.2,0.2-0.2c0,0,0-0.1-0.1-0.2l-0.5-0.6c-0.1-0.1-0.1-0.1-0.1-0.2c0-0.1,0-0.1,0-0.1
				c0-0.1,0.1-0.1,0.3-0.2l0.8-0.4c0.1,0,0.1-0.1,0.1-0.1c0,0-0.1-0.1-0.2-0.2c-0.1-0.1-0.3-0.2-0.4-0.4c-0.1-0.2-0.3-0.4-0.4-0.6
				c-0.1-0.2-0.2-0.5-0.2-0.9c0-0.3,0-0.6,0.1-0.8s0.2-0.5,0.4-0.7c0.2-0.2,0.4-0.3,0.6-0.5c0.2-0.1,0.5-0.2,0.8-0.2
				c0.2,0,0.4,0,0.6,0.1s0.3,0.1,0.5,0.2s0.3,0.1,0.4,0.2c0.1,0.1,0.2,0.1,0.4,0.1c0,0,0.1,0,0.1,0s0.1,0,0.1,0L89,119.6z M86,125.1
				c-0.2,0-0.4,0.1-0.5,0.2c-0.2,0.1-0.3,0.3-0.4,0.5c-0.1,0.2-0.2,0.4-0.2,0.6c0,0.4,0.1,0.7,0.4,1c0.3,0.3,0.7,0.4,1.2,0.4
				c0.6,0,1.1-0.1,1.4-0.4c0.4-0.3,0.5-0.6,0.5-1.1c0-0.4-0.1-0.7-0.4-0.9s-0.7-0.3-1.2-0.3C86.6,125.1,86.3,125.1,86,125.1z
				 M85.8,119.8c-0.2,0.3-0.3,0.8-0.3,1.4c0,0.6,0.1,1,0.3,1.4c0.2,0.3,0.5,0.5,0.9,0.5c0.4,0,0.7-0.2,0.9-0.5
				c0.2-0.3,0.3-0.8,0.3-1.4c0-0.6-0.1-1-0.3-1.4c-0.2-0.3-0.5-0.5-0.9-0.5C86.4,119.3,86.1,119.5,85.8,119.8z"/>
			<path style="fill:#FFFFFF;" d="M97.9,119.3c0.3,0.2,0.6,0.4,0.8,0.6c0.2,0.3,0.4,0.6,0.5,1s0.2,0.8,0.2,1.3
				c0,0.5-0.1,0.9-0.2,1.3c-0.1,0.4-0.3,0.7-0.5,1c-0.2,0.3-0.5,0.5-0.9,0.6c-0.3,0.2-0.7,0.2-1.1,0.2c-0.4,0-0.7-0.1-1-0.2
				s-0.6-0.4-0.8-0.7c-0.2-0.3-0.4-0.6-0.5-1c-0.1-0.4-0.2-0.8-0.2-1.3c0-0.5,0.1-0.9,0.2-1.3s0.3-0.7,0.5-1
				c0.2-0.3,0.5-0.5,0.8-0.6c0.3-0.2,0.7-0.2,1-0.2C97.2,119.1,97.5,119.2,97.9,119.3z M95.4,120c-0.3,0.5-0.5,1.2-0.5,2.1
				c0,0.5,0,0.9,0.1,1.3s0.2,0.7,0.4,0.9c0.2,0.3,0.3,0.5,0.6,0.6s0.5,0.2,0.7,0.2c0.6,0,1-0.2,1.3-0.7s0.5-1.2,0.5-2.1
				c0-1-0.2-1.7-0.5-2.3s-0.8-0.8-1.3-0.8C96.2,119.3,95.8,119.6,95.4,120z"/>
			<path style="fill:#FFFFFF;" d="M105.5,121.4c-0.1,0-0.2,0-0.2,0.1c0,0.1,0,0.2,0,0.4c0,0.4,0.1,0.8,0.2,1.2
				c0.1,0.3,0.2,0.6,0.4,0.9c0.2,0.2,0.4,0.4,0.7,0.6c0.3,0.1,0.5,0.2,0.8,0.2c0.3,0,0.5,0,0.7-0.1s0.3-0.2,0.5-0.3
				c0.1-0.1,0.2-0.2,0.3-0.3s0.1-0.1,0.1-0.1c0.1,0,0.1,0,0.1,0.1c0,0.1,0,0.2-0.1,0.4c-0.1,0.2-0.2,0.3-0.4,0.5
				c-0.2,0.1-0.4,0.3-0.7,0.4c-0.3,0.1-0.6,0.2-0.9,0.2c-0.4,0-0.7-0.1-1-0.2c-0.3-0.2-0.6-0.4-0.8-0.6s-0.4-0.6-0.5-1
				s-0.2-0.8-0.2-1.3c0-0.5,0.1-0.9,0.2-1.3c0.1-0.4,0.3-0.7,0.6-1c0.2-0.3,0.5-0.5,0.8-0.6c0.3-0.1,0.7-0.2,1-0.2
				c0.3,0,0.6,0.1,0.8,0.2c0.2,0.1,0.5,0.3,0.6,0.5c0.2,0.2,0.3,0.4,0.4,0.7c0.1,0.3,0.1,0.5,0.1,0.8c0,0.1,0,0.2-0.1,0.2
				c-0.1,0-0.2,0.1-0.3,0.1H105.5z M107.8,121c0.3-0.1,0.4-0.2,0.4-0.5c0-0.1,0-0.3-0.1-0.4c-0.1-0.1-0.1-0.3-0.3-0.4
				s-0.2-0.2-0.4-0.3s-0.3-0.1-0.5-0.1c-0.2,0-0.4,0.1-0.6,0.2c-0.2,0.1-0.4,0.2-0.5,0.4c-0.1,0.2-0.3,0.3-0.4,0.5
				c-0.1,0.2-0.1,0.4-0.1,0.6c0,0,0,0.1,0,0.1c0,0,0.1,0,0.1,0h1.1C107.1,121.1,107.5,121.1,107.8,121z"/>
			<path style="fill:#FFFFFF;" d="M118.7,123.9c0,0.3,0,0.5,0,0.6s0.1,0.2,0.2,0.2c0,0,0.1,0,0.1,0c0,0,0.1-0.1,0.1-0.1
				s0.1-0.1,0.1-0.1c0,0,0.1,0,0.1,0c0,0,0,0.1,0,0.2c0,0.1,0,0.2-0.1,0.2c0,0-0.1,0.1-0.2,0.1c-0.3,0.1-0.5,0.2-0.6,0.3
				c-0.1,0.1-0.2,0.1-0.3,0.1c-0.1,0-0.1-0.1-0.2-0.3l-0.1-0.6h-0.1c-0.3,0.3-0.6,0.6-0.9,0.8s-0.6,0.3-0.9,0.3
				c-0.3,0-0.6-0.1-0.8-0.2c-0.3-0.1-0.5-0.3-0.7-0.6c-0.2-0.3-0.3-0.6-0.5-1c-0.1-0.4-0.2-0.8-0.2-1.3c0-0.5,0.1-1,0.2-1.4
				s0.3-0.7,0.5-1c0.2-0.3,0.5-0.5,0.8-0.6c0.3-0.1,0.6-0.2,1-0.2c0.2,0,0.4,0,0.6,0.1c0.2,0,0.3,0.1,0.4,0.1
				c0.1,0.1,0.2,0.1,0.2,0.1s0.1,0.1,0.1,0.1c0.1,0,0.1,0,0.1-0.1v-2c0-0.4-0.1-0.6-0.4-0.6c0,0,0,0,0,0c0,0,0,0-0.1,0
				c0,0,0,0-0.1,0c0,0,0-0.1,0-0.1c0-0.1,0.1-0.1,0.2-0.2c0.1,0,0.2-0.1,0.4-0.1c0.2-0.1,0.4-0.2,0.5-0.2c0.1-0.1,0.2-0.1,0.2-0.1
				c0.1,0,0.1,0.1,0.1,0.3V123.9z M117.8,120c-0.1-0.1-0.2-0.3-0.3-0.4c-0.1-0.1-0.3-0.2-0.4-0.2c-0.2-0.1-0.3-0.1-0.5-0.1
				c-0.5,0-1,0.2-1.3,0.7s-0.5,1.2-0.5,2.1c0,0.9,0.2,1.6,0.5,2.1c0.3,0.5,0.7,0.7,1.2,0.7c0.2,0,0.4,0,0.5-0.1
				c0.2-0.1,0.3-0.2,0.5-0.3c0.1-0.1,0.2-0.3,0.3-0.5c0.1-0.2,0.1-0.4,0.1-0.6v-3C117.9,120.3,117.9,120.1,117.8,120z"/>
		</g>
	</g>
	<g>
		<path style="fill:none;stroke:#FFFFFF;stroke-width:4.505;stroke-miterlimit:10;" d="M58.1,12.1v36.2c0,14.1,11.4,25.5,25.5,25.5
			s25.5-11.4,25.5-25.5V12.1"/>
		<polyline style="fill:none;stroke:#FFFFFF;stroke-width:4.505;stroke-miterlimit:10;" points="45.3,2.9 58.1,13.1 70.8,2.9 
			83.6,13.1 96.4,2.9 109.2,13.1 121.9,2.9 		"/>
	</g>
	<line style="fill:none;stroke:#FFFFFF;stroke-width:4.505;stroke-miterlimit:10;" x1="121.9" y1="2.9" x2="58.1" y2="54"/>
</g>
</svg>
