<svg xmlns="http://www.w3.org/2000/svg" viewBox="0 0 168 128.1"><path d="M0 89.3h4.2l4.6 7.5 4.6-7.5h4.2V107h-3.9V95.5l-5 7.5-4.9-7.5V107H0V89.3zm31-.1h3.6l7.6 17.8h-4.1l-1.6-4H29l-1.6 4h-4L31 89.2zm4.1 10.4l-2.3-5.7-2.3 5.7h4.6zm12.8-10.3h13.3v3.5h-9.5v3.6H60v3.5h-8.3v3.7h9.6v3.5H47.9V89.3zm24 3.6h-5.4v-3.6h14.6v3.6h-5.4V107h-3.9V92.9zm15.3-3.6h3.9v14.1h8.8v3.5H87.2V89.3zm24.7-.1h3.6L123 107h-4l-1.6-4h-7.5l-1.6 4h-4l7.6-17.8zm4.1 10.4l-2.3-5.7-2.3 5.7h4.6zm12.8-10.3h3.6l8.3 10.9V89.3h3.8V107h-3.3l-8.6-11.2V107h-3.8V89.3zm22.9 0h6.9c5.5 0 9.4 3.8 9.4 8.8v.1c0 5-3.8 8.8-9.4 8.8h-6.9V89.3zm3.9 3.5v10.6h3c3.2 0 5.3-2.1 5.3-5.3V98c0-3.1-2.1-5.3-5.3-5.3h-3zM49.3 124.4c0 .2 0 .3.1.4.1.1.2.1.2.1.1 0 .2 0 .2.1.1 0 .1.1.1.1v.1h-2.1l-.1-.1c0-.1 0-.1.1-.1s.2 0 .3-.1c.1 0 .2-.1.3-.1.1-.1.1-.2.1-.4v-7.1c0-.4-.1-.6-.4-.6H48c-.1 0-.1 0-.1-.1s.1-.2.2-.2.2 0 .4-.1.4-.2.5-.2.2-.1.2-.1c.1 0 .1.1.1.3v8.1zm9.1-.5c0 .6.1.8.4.8.1 0 .2 0 .3-.1.1-.1.2-.1.2-.1.1 0 .1 0 .1.1s0 .2-.1.2l-.3.3c-.1.1-.2.2-.3.2-.1.1-.2.1-.3.1-.2 0-.3-.1-.4-.2-.1-.1-.2-.4-.3-.7h-.1c-.3.3-.6.5-.9.7-.3.2-.5.3-.8.3-.3 0-.6-.1-.7-.3-.2-.2-.3-.4-.3-.8 0-.2.1-.5.2-.7.1-.2.3-.4.5-.6s.5-.4.9-.6c.3-.2.7-.5 1.2-.7v-1.2c0-.4 0-.7-.1-.9-.1-.2-.3-.3-.5-.3s-.4.1-.7.2c-.2.2-.3.4-.4.6-.1.3-.2.5-.3.7-.1.2-.3.3-.5.3-.1 0-.1 0-.2-.1 0 0-.1-.1-.1-.2 0-.2.1-.3.2-.6s.3-.4.5-.6c.2-.2.5-.4.8-.5.3-.1.6-.2 1-.2.3 0 .5 0 .7.1.2.1.3.2.4.3.1.1.1.3.1.5v4zm-.9-1.8s-.1 0-.1.1l-.4.2c-.9.5-1.4 1.1-1.4 1.7 0 .2.1.4.2.6.1.1.3.2.5.2.1 0 .3 0 .4-.1s.3-.2.4-.3.2-.3.3-.4.1-.4.1-.6v-1.2c.1-.2.1-.2 0-.2zm7.8-2.1c0 .1 0 .1.1.1s.1-.1.2-.2.2-.3.4-.4c.2-.2.4-.3.5-.4.2-.1.4-.1.6-.1.5 0 .9.2 1.2.5.3.4.5.9.5 1.5v3.3c0 .2 0 .3.1.4.1.1.2.1.2.1s.2 0 .2.1c.1 0 .1.1.1.1v.1h-2.2s-.1 0-.1-.1 0-.1.1-.1.2 0 .2-.1c.1 0 .2-.1.2-.1.1-.1.1-.2.1-.4v-2.7c0-.7-.1-1.2-.3-1.6s-.5-.5-1-.5-.8.2-1 .6c-.2.4-.3 1-.3 1.7v2.4c0 .2 0 .3.1.4.1.1.2.1.2.1s.2 0 .2.1c.1 0 .1.1.1.1v.1h-2.2c-.1 0 0-.1 0-.1 0-.1 0-.1.1-.1s.2 0 .2-.1c.1 0 .2-.1.2-.1s.1-.2.1-.4v-3.9c0-.1 0-.2-.1-.3s-.1-.1-.2-.1h-.2c-.1 0-.1 0-.1-.1s0-.1.1-.2c.1 0 .2-.1.3-.2.2-.2.4-.3.5-.4l.2-.2s.1 0 .1.1v1.1zm13.6 3.9v.6c0 .1.1.2.2.2h.1l.1-.1.1-.1h.1v.2c0 .1 0 .2-.1.2 0 0-.1.1-.2.1-.3.1-.5.2-.6.3-.1.1-.2.1-.3.1-.1 0-.1-.1-.2-.3l-.1-.6h-.1c-.3.3-.6.6-.9.8s-.6.3-.9.3c-.3 0-.6-.1-.8-.2-.3-.1-.5-.3-.7-.6-.2-.3-.3-.6-.5-1-.1-.4-.2-.8-.2-1.3s.1-1 .2-1.4.3-.7.5-1c.2-.3.5-.5.8-.6.3-.1.6-.2 1-.2.2 0 .4 0 .6.1.2 0 .3.1.4.1.1.1.2.1.2.1l.1.1c.1 0 .1 0 .1-.1v-2c0-.4-.1-.6-.4-.6h-.2v-.1c0-.1.1-.1.2-.2.1 0 .2-.1.4-.1.2-.1.4-.2.5-.2.1-.1.2-.1.2-.1.1 0 .1.1.1.3v7.3zm-.8-3.9c-.1-.1-.2-.3-.3-.4-.1-.1-.3-.2-.4-.2-.2-.1-.3-.1-.5-.1-.5 0-1 .2-1.3.7s-.5 1.2-.5 2.1c0 .9.2 1.6.5 2.1s.7.7 1.2.7c.2 0 .4 0 .5-.1.2-.1.3-.2.5-.3.1-.1.2-.3.3-.5.1-.2.1-.4.1-.6v-3c0-.1-.1-.3-.1-.4zm10.9-.4h.2c.1 0 .2 0 .2.1 0 0 .1.1.1.3v.1h-.9c.1.2.2.4.2.6 0 .2.1.4.1.6 0 .6-.2 1.1-.5 1.5-.4.4-.8.6-1.4.6-.5 0-.8.1-1 .2-.2.1-.3.2-.3.3 0 .1.1.2.2.3.1.1.3.2.6.2h.8c1.5 0 2.3.5 2.3 1.6 0 .3-.1.6-.2.9s-.3.5-.6.7c-.3.2-.6.4-.9.5-.4.1-.7.2-1.1.2-.7 0-1.3-.1-1.7-.4-.4-.3-.6-.6-.6-1.1 0-.2.1-.4.2-.6s.3-.3.4-.5.3-.2.4-.3l.2-.2s0-.1-.1-.2l-.5-.6c-.1-.1-.1-.1-.1-.2v-.1c0-.1.1-.1.3-.2l.8-.4c.1 0 .1-.1.1-.1l-.2-.2c-.1-.1-.3-.2-.4-.4-.1-.2-.3-.4-.4-.6-.1-.2-.2-.5-.2-.9 0-.3 0-.6.1-.8s.2-.5.4-.7c.2-.2.4-.3.6-.5.2-.1.5-.2.8-.2.2 0 .4 0 .6.1s.3.1.5.2.3.1.4.2c.1.1.2.1.4.1h.2v-.1zm-3 5.5c-.2 0-.4.1-.5.2-.2.1-.3.3-.4.5-.1.2-.2.4-.2.6 0 .4.1.7.4 1 .3.3.7.4 1.2.4.6 0 1.1-.1 1.4-.4.4-.3.5-.6.5-1.1 0-.4-.1-.7-.4-.9s-.7-.3-1.2-.3H86zm-.2-5.3c-.2.3-.3.8-.3 1.4 0 .6.1 1 .3 1.4.2.3.5.5.9.5s.7-.2.9-.5c.2-.3.3-.8.3-1.4 0-.6-.1-1-.3-1.4-.2-.3-.5-.5-.9-.5-.3 0-.6.2-.9.5zm12.1-.5c.3.2.6.4.8.6.2.3.4.6.5 1s.2.8.2 1.3-.1.9-.2 1.3-.3.7-.5 1c-.2.3-.5.5-.9.6-.3.2-.7.2-1.1.2-.4 0-.7-.1-1-.2s-.6-.4-.8-.7c-.2-.3-.4-.6-.5-1-.1-.4-.2-.8-.2-1.3s.1-.9.2-1.3.3-.7.5-1c.2-.3.5-.5.8-.6.3-.2.7-.2 1-.2.5.1.8.2 1.2.3zm-2.5.7c-.3.5-.5 1.2-.5 2.1 0 .5 0 .9.1 1.3s.2.7.4.9c.2.3.3.5.6.6s.5.2.7.2c.6 0 1-.2 1.3-.7s.5-1.2.5-2.1c0-1-.2-1.7-.5-2.3s-.8-.8-1.3-.8c-.5.1-.9.4-1.3.8zm10.1 1.4c-.1 0-.2 0-.2.1v.4c0 .4.1.8.2 1.2.1.3.2.6.4.9.2.2.4.4.7.6.3.1.5.2.8.2.3 0 .5 0 .7-.1s.3-.2.5-.3l.3-.3.1-.1c.1 0 .1 0 .1.1s0 .2-.1.4-.2.3-.4.5c-.2.1-.4.3-.7.4-.3.1-.6.2-.9.2-.4 0-.7-.1-1-.2-.3-.2-.6-.4-.8-.6s-.4-.6-.5-1-.2-.8-.2-1.3.1-.9.2-1.3.3-.7.6-1c.2-.3.5-.5.8-.6.3-.1.7-.2 1-.2.3 0 .6.1.8.2.2.1.5.3.6.5.2.2.3.4.4.7.1.3.1.5.1.8 0 .1 0 .2-.1.2s-.2.1-.3.1h-3.1zm2.3-.4c.3-.1.4-.2.4-.5 0-.1 0-.3-.1-.4-.1-.1-.1-.3-.3-.4s-.2-.2-.4-.3-.3-.1-.5-.1-.4.1-.6.2c-.2.1-.4.2-.5.4-.1.2-.3.3-.4.5-.1.2-.1.4-.1.6v.1h1.2c.6 0 1 0 1.3-.1zm10.9 2.9v.6c0 .1.1.2.2.2h.1l.1-.1.1-.1h.1v.2c0 .1 0 .2-.1.2 0 0-.1.1-.2.1-.3.1-.5.2-.6.3-.1.1-.2.1-.3.1-.1 0-.1-.1-.2-.3l-.1-.6h-.1c-.3.3-.6.6-.9.8s-.6.3-.9.3c-.3 0-.6-.1-.8-.2-.3-.1-.5-.3-.7-.6-.2-.3-.3-.6-.5-1-.1-.4-.2-.8-.2-1.3s.1-1 .2-1.4.3-.7.5-1c.2-.3.5-.5.8-.6.3-.1.6-.2 1-.2.2 0 .4 0 .6.1.2 0 .3.1.4.1.1.1.2.1.2.1l.1.1c.1 0 .1 0 .1-.1v-2c0-.4-.1-.6-.4-.6h-.2v-.1c0-.1.1-.1.2-.2.1 0 .2-.1.4-.1.2-.1.4-.2.5-.2.1-.1.2-.1.2-.1.1 0 .1.1.1.3v7.3zm-.9-3.9c-.1-.1-.2-.3-.3-.4-.1-.1-.3-.2-.4-.2-.2-.1-.3-.1-.5-.1-.5 0-1 .2-1.3.7s-.5 1.2-.5 2.1c0 .9.2 1.6.5 2.1s.7.7 1.2.7c.2 0 .4 0 .5-.1.2-.1.3-.2.5-.3.1-.1.2-.3.3-.5.1-.2.1-.4.1-.6v-3c0-.1 0-.3-.1-.4z" fill="#fff"/><g fill="none" stroke="#fff" stroke-width="4.505" stroke-miterlimit="10"><path d="M58.1 12.1v36.2c0 14.1 11.4 25.5 25.5 25.5s25.5-11.4 25.5-25.5V12.1"/><path d="M45.3 2.9l12.8 10.2L70.8 2.9l12.8 10.2L96.4 2.9l12.8 10.2 12.7-10.2"/></g><path fill="none" stroke="#fff" stroke-width="4.505" stroke-miterlimit="10" d="M121.9 2.9L58.1 54"/></svg>